<?xml version="1.0" encoding="UTF-8"?><svg id="Layer_1" xmlns="http://www.w3.org/2000/svg" xmlns:xlink="http://www.w3.org/1999/xlink" viewBox="0 0 428.03 292.3"><defs><style>.cls-1{fill:#fff;}.cls-2{fill:#006363;}.cls-3{fill:url(#linear-gradient);opacity:.5;}.cls-4{fill:#b6e2ea;}.cls-5{fill:#033b4d;opacity:.2;}.cls-6{fill:#035f5f;}.cls-7{fill:#0b6866;}.cls-8{fill:#1ea4a6;}</style><linearGradient id="linear-gradient" x1="288.87" y1="108.12" x2="240.02" y2="192.73" gradientUnits="userSpaceOnUse"><stop offset="0" stop-color="#3fbfb8" stop-opacity="0"/><stop offset=".05" stop-color="#3fbfb8" stop-opacity=".11"/><stop offset=".15" stop-color="#3fbfb8" stop-opacity=".41"/><stop offset=".3" stop-color="#3fbfb8" stop-opacity=".88"/><stop offset=".33" stop-color="#3fbfb8"/><stop offset=".67" stop-color="#1b7179"/><stop offset=".9" stop-color="#033b4d"/></linearGradient></defs><path class="cls-6" d="M107.59,186.62s6.27,12.05,6.6,17.66,0,12.54,0,12.54c0,0,19.14-5.94,25.08-6.6,5.94-.66-31.68-23.6-31.68-23.6Z"/><path class="cls-1" d="M99.01,180.51s35.2,48.41,121.44,49.73c86.24,1.32,131.56-16.72,150.48-33.22,18.92-16.5,24.42-20.9,30.03-27.72,5.61-6.82-2.75-17.75-2.75-17.75l-99.44,4.32-170.04,10.53-29.72,14.1Z"/><path class="cls-4" d="M98.01,181.51s50.49,57.57,136.46,65.91,136.24-49.86,136.24-49.86l-8.68-4.82s-28.72,23.75-120.5,24.41c-102.96.66-135.94-35.64-135.94-35.64h-7.59Z"/><path class="cls-2" d="M56.1,151.48c8.58,69.63-24.09,102.63-24.09,102.63,0,0,32.67-14.19,47.85-38.61,15.18-24.42,18.15-33.99,18.15-33.99,0,0,20.79,6.56,64.02,5.12,43.23-1.44,69.63-18.65,69.63-18.65l-25.08-57.09s-49.57,8.85-68.31,17.16c-18.75,8.31-42.9,20.79-42.9,20.79,0,0-3.3-21.12-30.03-57.09C38.61,55.77,0,42.9,0,42.9c0,0,47.52,38.94,56.1,108.58Z"/><path class="cls-6" d="M188.77,183.6s4.19,23.85-8.96,57.41c-13.15,33.56-63.97,51.05-63.97,51.05,0,0,58.08,3.8,91.74-19.14,49.5-31.02,58.74-59.73,58.74-59.73,0,0-18.48-7.92-28.71-16.17-10.23-8.25-13.7-18.86-13.7-18.86l-35.14,5.44Z"/><path class="cls-2" d="M143.23,133c15.51-20.13,21.11-21.45,21.44-65.01S143.23,0,143.23,0c0,0,35.29,10.54,65.33,47.51,30.04,36.97,39.94,70.96,39.94,70.96l-105.28,14.52Z"/><path class="cls-8" d="M132.01,132.34c8.58-6.27,65.67-35.31,160.06-35.31s135.97,27.39,135.97,31.02-7.59,16.83-12.54,23.43c-4.95,6.6-14.52,17.82-14.52,17.82-1.82-.06-13.04-16.96-101.97-2.97-88.94,13.99-125.41,19.81-125.41,19.81-15.51.86-26.07-12.88-33-21.13s-17.16-26.4-8.58-32.67Z"/><path class="cls-6" d="M320.15,174.23s6.25,15.2,26.05,20.15,24.52,3.18,24.52,3.18l6.5-6s-18.11-.62-29.69-3.45c-11.58-2.83-27.38-13.88-27.38-13.88Z"/><path class="cls-6" d="M282.82,237.28s24.75,9.9,34.32,21.12c9.57,11.22,18.48,30.03,18.48,30.03,0,0,10.89-19.47,11.06-36.63s-13.04-40.26-13.04-40.26l-50.82,25.74Z"/><path class="cls-7" d="M239.26,169.41c-1.65,20.21,14.19,35.53,14.19,35.53,0,0-2.93-22.01-2.95-34.6s8.56-34.37,8.56-34.37c0,0-18.15,13.23-19.8,33.44Z"/><path class="cls-7" d="M264.57,166.72c-3.44,19.99,12.98,36.65,12.98,36.65,0,0-2.96-22.18-1.87-34.73,1.1-12.54,12.58-33.48,12.58-33.48,0,0-20.25,11.57-23.69,31.55Z"/><path class="cls-3" d="M361.7,102.19s-65.56-10.56-97.6-5.17c-17.77,2.99-51.13,19.69-64.77,46.09-13.64,26.4-10.54,40.61-10.54,40.61,0,0,1.3.1,16.26-2.21,14.96-2.31,18.86-3.35,18.86-3.35,0,0-11.49-23.61,10.56-45.17,22.06-21.56,42-24.88,64.14-26.36,22.14-1.48,63.08-4.44,63.08-4.44Z"/><path class="cls-5" d="M428.03,128.05s-38.39-1.76-57.31.61-39.79,10.71-39.79,10.71l5.11,22.42s29.62-3.54,43.44,0,21.49,7.51,21.49,7.51c0,0,4.95-2.64,14.52-17.82s12.54-23.43,12.54-23.43Z"/><circle class="cls-1" cx="328.6" cy="140.1" r="11.45"/><circle class="cls-6" cx="330.93" cy="139.37" r="11.45"/></svg>