<?xml version="1.0" encoding="UTF-8"?><svg id="Layer_1" xmlns="http://www.w3.org/2000/svg" viewBox="0 0 384 384"><defs><style>.cls-1{fill:#fff;}</style></defs><path class="cls-1" d="M0,351.75V0h384v351.75c-3.33-8.1-12.42-5.72-19.9-8.22-8.55-2.87-16.98-10.31-22.41-17.34-4.06-5.26-6.14-14.01-14.89-10.26l-5.79,6.57c-9.04-64.42-30.07-127.92-71.28-178.85-39.1-48.32-95.41-82.74-151.72-107.78-5.95-2.65-27.44-12.67-32.38-12.68-6.53-.02-11.63,5.27-11.69,11.69-.1,9.62,6.16,29.94,8.08,40.73,12.76,71.69,16.62,149.11,2.27,220.79-.5,2.48-4.32,20.81-5.4,20.83-9.44-6.88-12.12,3.29-16.56,8.95-5.58,7.1-14.24,14.73-22.98,17.52-7.12,2.27-16.15.21-19.33,8.04Z"/><path d="M0,351.75c3.18-7.83,12.22-5.77,19.33-8.04,8.74-2.79,17.4-10.42,22.98-17.52,4.45-5.66,7.12-15.84,16.56-8.95,1.08-.02,4.91-18.35,5.4-20.83,14.35-71.69,10.49-149.11-2.27-220.79-1.92-10.8-8.17-31.12-8.08-40.73.06-6.41,5.16-11.7,11.69-11.69,4.94.01,26.43,10.03,32.38,12.68,56.31,25.03,112.63,59.45,151.72,107.78,41.21,50.93,62.23,114.44,71.28,178.85l5.79-6.57c8.75-3.75,10.83,5,14.89,10.26,5.43,7.03,13.86,14.47,22.41,17.34,7.48,2.51,16.58.12,19.9,8.22v3c-2.92,6.52-7.35,6.47-13.78,5.9-16.03-1.41-29.89-12.03-39.85-23.89-7.22,7.75-14.68,15.36-24.61,19.62-25.54,10.96-51.13,1.23-67.64-19.62-8.04,9.18-17.57,17.69-29.47,21.52-24.58,7.91-47.23-2.45-62.78-21.52-16.58,20.81-42.03,30.61-67.64,19.62-9.82-4.21-17.44-11.97-24.61-19.62-9.8,11.69-24.07,22.5-39.85,23.89-6.43.57-10.85.62-13.78-5.9v-3ZM88.5,186.75c.86,41.6-2.57,83.21-11.62,123.76-.92,4.13-5.73,18.86-5.58,21.41.19,3.18,11.33,9.74,14.44,10.96,18.92,7.41,36.73-1.2,48.5-16.28,3.46-4.43,5.53-12.07,12.3-11.58,5.74.41,11.43,12.84,15.81,17.25,17.53,17.66,41.79,17.66,59.31,0,4.62-4.66,10.06-17.29,16.47-17.29s8.12,7.08,11.31,11.2c11.9,15.38,29.52,24.25,48.82,16.7,1.7-.66,8.21-4.05,8.87-5.38,1.06-2.16-2.31-20.86-2.98-24.78-13.33-77.84-42.42-145.58-103.54-197.21-38.3-32.36-83.8-55.6-130.11-74.26,8.35,35.35,13.13,71.44,16.49,107.63.36,3.91-.59,7.97.92,11.83l1.03,1.22c11.87,6.07,24.46,11.94,35.78,18.97,2.34,1.45,11.68,6.87,11.75,9.21-.58,3.64-2.44,3.56-5.62,3.44l-42.35-6.79Z"/><path class="cls-1" d="M384,354.75v29.25H0v-29.25c2.92,6.52,7.35,6.47,13.78,5.9,15.77-1.39,30.05-12.2,39.85-23.89,7.18,7.65,14.8,15.41,24.61,19.62,25.61,10.99,51.06,1.19,67.64-19.62,15.55,19.06,38.21,29.43,62.78,21.52,11.9-3.83,21.43-12.34,29.47-21.52,16.5,20.86,42.09,30.58,67.64,19.62,9.93-4.26,17.4-11.88,24.61-19.62,9.96,11.86,23.81,22.48,39.85,23.89,6.43.57,10.85.62,13.78-5.9Z"/><path class="cls-1" d="M88.5,186.75l42.35,6.79c3.18.13,5.05.21,5.62-3.44-.06-2.34-9.41-7.75-11.75-9.21-11.32-7.02-23.91-12.9-35.78-18.97l-1.03-1.22c-1.51-3.86-.56-7.92-.92-11.83-3.36-36.18-8.14-72.27-16.49-107.63,46.3,18.66,91.81,41.9,130.11,74.26,61.12,51.64,90.21,119.37,103.54,197.21.67,3.91,4.05,22.62,2.98,24.78-.65,1.32-7.17,4.71-8.87,5.38-19.31,7.56-36.92-1.32-48.82-16.7-3.19-4.12-5.12-11.2-11.31-11.2s-11.85,12.63-16.47,17.29c-17.52,17.66-41.79,17.66-59.31,0-4.38-4.41-10.07-16.84-15.81-17.25-6.77-.49-8.84,7.15-12.3,11.58-11.76,15.08-29.58,23.69-48.5,16.28-3.11-1.22-14.25-7.78-14.44-10.96-.15-2.55,4.66-17.28,5.58-21.41,9.05-40.55,12.48-82.16,11.62-123.76Z"/></svg>