<?xml version="1.0" encoding="UTF-8"?>
<svg id="Layer_1" xmlns="http://www.w3.org/2000/svg" version="1.1" viewBox="0 0 384 384">
  <!-- Generator: Adobe Illustrator 29.2.1, SVG Export Plug-In . SVG Version: 2.1.0 Build 116)  -->
  <path d="M0,351.8c3.2-7.8,12.2-5.8,19.3-8,8.7-2.8,17.4-10.4,23-17.5,4.5-5.7,7.1-15.8,16.6-9,1.1,0,4.9-18.4,5.4-20.8,14.3-71.7,10.5-149.1-2.3-220.8-1.9-10.8-8.2-31.1-8.1-40.7,0-6.4,5.2-11.7,11.7-11.7,4.9,0,26.4,10,32.4,12.7,56.3,25,112.6,59.5,151.7,107.8,41.2,50.9,62.2,114.4,71.3,178.9l5.8-6.6c8.8-3.8,10.8,5,14.9,10.3,5.4,7,13.9,14.5,22.4,17.3,7.5,2.5,16.6.1,19.9,8.2v3c-2.9,6.5-7.4,6.5-13.8,5.9-16-1.4-29.9-12-39.9-23.9-7.2,7.8-14.7,15.4-24.6,19.6-25.5,11-51.1,1.2-67.6-19.6-8,9.2-17.6,17.7-29.5,21.5-24.6,7.9-47.2-2.5-62.8-21.5-16.6,20.8-42,30.6-67.6,19.6-9.8-4.2-17.4-12-24.6-19.6-9.8,11.7-24.1,22.5-39.8,23.9-6.4.6-10.9.6-13.8-5.9v-3h0ZM88.5,186.8c.9,41.6-2.6,83.2-11.6,123.8-.9,4.1-5.7,18.9-5.6,21.4.2,3.2,11.3,9.7,14.4,11,18.9,7.4,36.7-1.2,48.5-16.3,3.5-4.4,5.5-12.1,12.3-11.6,5.7.4,11.4,12.8,15.8,17.2,17.5,17.7,41.8,17.7,59.3,0,4.6-4.7,10.1-17.3,16.5-17.3s8.1,7.1,11.3,11.2c11.9,15.4,29.5,24.2,48.8,16.7,1.7-.7,8.2-4,8.9-5.4,1.1-2.2-2.3-20.9-3-24.8-13.3-77.8-42.4-145.6-103.5-197.2-38.3-32.4-83.8-55.6-130.1-74.3,8.3,35.3,13.1,71.4,16.5,107.6.4,3.9-.6,8,.9,11.8l1,1.2c11.9,6.1,24.5,11.9,35.8,19,2.3,1.4,11.7,6.9,11.7,9.2-.6,3.6-2.4,3.6-5.6,3.4l-42.3-6.8h0Z"/>
</svg>